<?xml version="1.0" encoding="UTF-8"?>
<svg width="1400" height="1000" xmlns="http://www.w3.org/2000/svg">
  <defs>
    <style>
      .box { fill: #e1f5fe; stroke: #01579b; stroke-width: 2; rx: 5; }
      .decision { fill: #fff3e0; stroke: #e65100; stroke-width: 2; }
      .start { fill: #e8f5e8; stroke: #2e7d32; stroke-width: 2; rx: 5; }
      .friend { fill: #f3e5f5; stroke: #7b1fa2; stroke-width: 2; rx: 5; }
      .text { font-family: Arial, sans-serif; font-size: 12px; text-anchor: middle; }
      .arrow { stroke: #333; stroke-width: 2; fill: none; marker-end: url(#arrowhead); }
      .arrowhead { fill: #333; }
    </style>
    <marker id="arrowhead" markerWidth="10" markerHeight="7" refX="9" refY="3.5" orient="auto">
      <polygon points="0 0, 10 3.5, 0 7" />
    </marker>
  </defs>
  
  <!-- Start -->
  <rect x="600" y="20" width="200" height="40" class="start"/>
  <text x="700" y="45" class="text">User Visits ECOTRADE</text>
  
  <!-- Decision 1 -->
  <polygon points="700,100 750,140 700,180 650,140" class="decision"/>
  <text x="700" y="145" class="text">Has Account?</text>
  
  <!-- Register -->
  <rect x="50" y="120" width="120" height="40" class="box"/>
  <text x="110" y="145" class="text">Register Account</text>
  
  <!-- Login -->
  <rect x="50" y="200" width="120" height="40" class="box"/>
  <text x="110" y="225" class="text">Login</text>
  
  <!-- View Dashboard -->
  <rect x="250" y="200" width="120" height="40" class="box"/>
  <text x="310" y="225" class="text">View Dashboard</text>
  
  <!-- View Posts -->
  <rect x="450" y="200" width="120" height="40" class="box"/>
  <text x="510" y="225" class="text">View Posts</text>
  
  <!-- Create Post -->
  <rect x="650" y="200" width="120" height="40" class="box"/>
  <text x="710" y="225" class="text">Create Post</text>
  
  <!-- Friend Management -->
  <rect x="850" y="200" width="120" height="40" class="friend"/>
  <text x="910" y="225" class="text">Manage Friends</text>
  
  <!-- Browse Marketplace -->
  <rect x="450" y="280" width="120" height="40" class="box"/>
  <text x="510" y="305" class="text">Browse Marketplace</text>
  
  <!-- Apply Filters -->
  <rect x="450" y="360" width="120" height="40" class="box"/>
  <text x="510" y="385" class="text">Apply Filters/Search</text>
  
  <!-- View Product Details -->
  <rect x="450" y="440" width="120" height="40" class="box"/>
  <text x="510" y="465" class="text">View Product Details</text>
  
  <!-- Decision 2 -->
  <polygon points="510,500 560,540 510,580 460,540" class="decision"/>
  <text x="510" y="545" class="text">Interested in Trading?</text>
  
  <!-- Make Trade Offer -->
  <rect x="650" y="520" width="120" height="40" class="box"/>
  <text x="710" y="545" class="text">Make Trade Offer</text>
  
  <!-- TradeManager Modal -->
  <rect x="850" y="520" width="120" height="40" class="box"/>
  <text x="910" y="545" class="text">TradeManager Modal</text>
  
  <!-- Send Offer -->
  <rect x="850" y="600" width="120" height="40" class="box"/>
  <text x="910" y="625" class="text">Send Offer/Message</text>
  
  <!-- Wait for Response -->
  <rect x="850" y="680" width="120" height="40" class="box"/>
  <text x="910" y="705" class="text">Wait for Seller Response</text>
  
  <!-- Decision 3 -->
  <polygon points="910,740 960,780 910,820 860,780" class="decision"/>
  <text x="910" y="785" class="text">Offer Accepted?</text>
  
  <!-- Negotiate -->
  <rect x="650" y="760" width="120" height="40" class="box"/>
  <text x="710" y="785" class="text">Negotiate/Counter</text>
  
  <!-- Complete Trade -->
  <rect x="1050" y="760" width="120" height="40" class="box"/>
  <text x="1110" y="785" class="text">Complete Trade</text>
  
  <!-- Leave Review -->
  <rect x="1050" y="840" width="120" height="40" class="box"/>
  <text x="1110" y="865" class="text">Leave Review/Rating</text>
  
  <!-- Notifications -->
  <rect x="850" y="840" width="120" height="40" class="box"/>
  <text x="910" y="865" class="text">Receive Notifications</text>
  
  <!-- Continue -->
  <rect x="650" y="840" width="120" height="40" class="box"/>
  <text x="710" y="865" class="text">Continue Using Platform</text>
  
  <!-- Friend Management Flow -->
  <!-- Search Users -->
  <rect x="1050" y="280" width="120" height="40" class="friend"/>
  <text x="1110" y="305" class="text">Search Users</text>
  
  <!-- Send Friend Request -->
  <rect x="1050" y="360" width="120" height="40" class="friend"/>
  <text x="1110" y="385" class="text">Send Friend Request</text>
  
  <!-- Friend Request Notification -->
  <rect x="1050" y="440" width="120" height="40" class="friend"/>
  <text x="1110" y="465" class="text">Friend Request Notification</text>
  
  <!-- Decision 4 - Accept/Reject -->
  <polygon points="1110,500 1160,540 1110,580 1060,540" class="decision"/>
  <text x="1110" y="545" class="text">Accept Request?</text>
  
  <!-- Accept Friend -->
  <rect x="1200" y="520" width="120" height="40" class="friend"/>
  <text x="1260" y="545" class="text">Accept Friend</text>
  
  <!-- Reject Friend -->
  <rect x="1200" y="600" width="120" height="40" class="friend"/>
  <text x="1260" y="625" class="text">Reject Friend</text>
  
  <!-- View Friends List -->
  <rect x="1200" y="680" width="120" height="40" class="friend"/>
  <text x="1260" y="705" class="text">View Friends List</text>
  
  <!-- Remove Friend -->
  <rect x="1200" y="760" width="120" height="40" class="friend"/>
  <text x="1260" y="785" class="text">Remove Friend</text>
  
  <!-- Block User -->
  <rect x="1200" y="840" width="120" height="40" class="friend"/>
  <text x="1260" y="865" class="text">Block User</text>
  
  <!-- Arrows -->
  <!-- Start to Decision 1 -->
  <line x1="700" y1="60" x2="700" y2="100" class="arrow"/>
  
  <!-- Decision 1 to Register -->
  <line x1="650" y1="140" x2="170" y2="140" class="arrow"/>
  <text x="300" y="135" class="text">No</text>
  
  <!-- Decision 1 to Login -->
  <line x1="700" y1="180" x2="700" y2="200" class="arrow"/>
  <text x="720" y="190" class="text">Yes</text>
  
  <!-- Register to Login -->
  <line x1="110" y1="160" x2="110" y2="200" class="arrow"/>
  
  <!-- Login to View Dashboard -->
  <line x1="170" y1="220" x2="250" y2="220" class="arrow"/>
  
  <!-- View Dashboard to View Posts -->
  <line x1="370" y1="220" x2="450" y2="220" class="arrow"/>
  
  <!-- View Posts to Create Post -->
  <line x1="570" y1="220" x2="650" y2="220" class="arrow"/>
  
  <!-- Create Post back to View Posts -->
  <line x1="710" y1="240" x2="710" y2="260" class="arrow"/>
  <line x1="710" y1="260" x2="570" y2="260" class="arrow"/>
  <line x1="570" y1="260" x2="570" y2="240" class="arrow"/>
  <text x="640" y="250" class="text">loop</text>
  
  <!-- View Posts to Friend Management -->
  <line x1="570" y1="240" x2="850" y2="240" class="arrow"/>
  
  <!-- Friend Management to Search Users -->
  <line x1="910" y1="240" x2="1110" y2="240" class="arrow"/>
  
  <!-- Search Users to Send Friend Request -->
  <line x1="1110" y1="320" x2="1110" y2="360" class="arrow"/>
  
  <!-- Send Friend Request to Notification -->
  <line x1="1110" y1="400" x2="1110" y2="440" class="arrow"/>
  
  <!-- Notification to Decision 4 -->
  <line x1="1110" y1="480" x2="1110" y2="500" class="arrow"/>
  
  <!-- Decision 4 to Accept -->
  <line x1="1160" y1="540" x2="1200" y2="540" class="arrow"/>
  <text x="1175" y="535" class="text">Yes</text>
  
  <!-- Decision 4 to Reject -->
  <line x1="1110" y1="580" x2="1110" y2="600" class="arrow"/>
  <text x="1130" y="590" class="text">No</text>
  
  <!-- Accept to View Friends List -->
  <line x1="1260" y1="560" x2="1260" y2="680" class="arrow"/>
  
  <!-- Reject back to Search -->
  <line x1="1260" y1="640" x2="1260" y2="720" class="arrow"/>
  <line x1="1260" y1="720" x2="1110" y2="720" class="arrow"/>
  <line x1="1110" y1="720" x2="1110" y2="320" class="arrow"/>
  <text x="1180" y="710" class="text">loop</text>
  
  <!-- View Friends List to Remove Friend -->
  <line x1="1260" y1="720" x2="1260" y2="760" class="arrow"/>
  
  <!-- Remove Friend to Block User -->
  <line x1="1260" y1="800" x2="1260" y2="840" class="arrow"/>
  
  <!-- Block User back to Search -->
  <line x1="1260" y1="880" x2="1260" y2="920" class="arrow"/>
  <line x1="1260" y1="920" x2="1110" y2="920" class="arrow"/>
  <line x1="1110" y1="920" x2="1110" y2="320" class="arrow"/>
  <text x="1180" y="910" class="text">loop</text>
  
  <!-- View Posts to Browse Marketplace -->
  <line x1="510" y1="240" x2="510" y2="280" class="arrow"/>
  
  <!-- Browse Marketplace to Apply Filters -->
  <line x1="510" y1="320" x2="510" y2="360" class="arrow"/>
  
  <!-- Apply Filters to View Product Details -->
  <line x1="510" y1="400" x2="510" y2="440" class="arrow"/>
  
  <!-- View Product Details to Decision 2 -->
  <line x1="510" y1="480" x2="510" y2="500" class="arrow"/>
  
  <!-- Decision 2 to Make Trade Offer -->
  <line x1="560" y1="540" x2="650" y2="540" class="arrow"/>
  <text x="600" y="535" class="text">Yes</text>
  
  <!-- Decision 2 back to Browse Marketplace -->
  <line x1="460" y1="540" x2="460" y2="560" class="arrow"/>
  <line x1="460" y1="560" x2="510" y2="560" class="arrow"/>
  <line x1="510" y1="560" x2="510" y2="320" class="arrow"/>
  <text x="480" y="550" class="text">No</text>
  
  <!-- Make Trade Offer to TradeManager Modal -->
  <line x1="770" y1="540" x2="850" y2="540" class="arrow"/>
  
  <!-- TradeManager Modal to Send Offer -->
  <line x1="910" y1="560" x2="910" y2="600" class="arrow"/>
  
  <!-- Send Offer to Wait for Response -->
  <line x1="910" y1="640" x2="910" y2="680" class="arrow"/>
  
  <!-- Wait for Response to Decision 3 -->
  <line x1="910" y1="720" x2="910" y2="740" class="arrow"/>
  
  <!-- Decision 3 to Negotiate -->
  <line x1="860" y1="780" x2="770" y2="780" class="arrow"/>
  <text x="800" y="775" class="text">No</text>
  
  <!-- Negotiate back to Send Offer -->
  <line x1="710" y1="800" x2="710" y2="820" class="arrow"/>
  <line x1="710" y1="820" x2="910" y2="820" class="arrow"/>
  <line x1="910" y1="820" x2="910" y2="640" class="arrow"/>
  <text x="800" y="810" class="text">loop</text>
  
  <!-- Decision 3 to Complete Trade -->
  <line x1="960" y1="780" x2="1050" y2="780" class="arrow"/>
  <text x="1000" y="775" class="text">Yes</text>
  
  <!-- Complete Trade to Leave Review -->
  <line x1="1110" y1="800" x2="1110" y2="840" class="arrow"/>
  
  <!-- Leave Review to Notifications -->
  <line x1="1110" y1="880" x2="970" y2="880" class="arrow"/>
  
  <!-- Notifications to Continue -->
  <line x1="850" y1="880" x2="770" y2="880" class="arrow"/>
  
  <!-- Continue back to View Posts -->
  <line x1="710" y1="880" x2="710" y2="900" class="arrow"/>
  <line x1="710" y1="900" x2="510" y2="900" class="arrow"/>
  <line x1="510" y1="900" x2="510" y2="240" class="arrow"/>
  <text x="600" y="890" class="text">continue</text>
</svg> 